{"accessors" : [{"bufferView" : 0, "byteOffset" : 0, "componentType" : 5123, "count" : 58176, "type" : "SCALAR", "max" : [58175], "min" : [0]}, {"bufferView" : 1, "byteOffset" : 0, "componentType" : 5126, "count" : 58176, "type" : "VEC3", "max" : [45, 45, 17.77739906311035], "min" : [-45, -45, 0], "name" : "POSITION"}, {"bufferView" : 1, "byteOffset" : 12, "componentType" : 5126, "count" : 58176, "type" : "VEC3", "max" : [0.9978632926940918, 0.9978632926940918, 1.0000044107437134], "min" : [-0.9978632926940918, -0.9978632926940918, -1.0000044107437134], "name" : "NORMAL"}], "asset" : {"generator" : "Aspose.3D 22.1", "version" : "2.0"}, "buffers" : [{"uri" : "data:application/octet-stream;base64,", "byteLength" : 1512584}], "bufferViews" : [{"buffer" : 0, "byteOffset" : 0, "byteLength" : 116352, "target" : 34963}, {"buffer" : 0, "byteOffset" : 116356, "byteLength" : 1396224, "byteStride" : 24, "target" : 34962}], "meshes" : [{"primitives" : [{"attributes" : {"POSITION" : 1, "NORMAL" : 2}, "indices" : 0, "mode" : 4}], "name" : "OpenSCAD_Model"}], "nodes" : [{"mesh" : 0, "name" : "OpenSCAD_Model"}], "scene" : 0, "scenes" : [{"nodes" : [0]}]}