{"accessors" : [{"bufferView" : 0, "byteOffset" : 0, "componentType" : 5123, "count" : 65526, "type" : "SCALAR", "max" : [62674], "min" : [0]}, {"bufferView" : 1, "byteOffset" : 0, "componentType" : 5126, "count" : 62675, "type" : "VEC3", "max" : [404.2577209472656, 100.15814208984375, 54.25771713256836], "min" : [295.7422790527344, -2.799999952316284, -54.25771713256836], "name" : "POSITION"}, {"bufferView" : 1, "byteOffset" : 12, "componentType" : 5126, "count" : 62675, "type" : "VEC3", "max" : [0.9999886155128479, 1.0000044107437134, 0.999981164932251], "min" : [-0.9999529123306274, -1.0000044107437134, -1.0000025033950806], "name" : "NORMAL"}], "asset" : {"generator" : "Aspose.3D 22.1", "version" : "2.0"}, "buffers" : [{"uri" : "data:application/octet-stream;base64,", "byteLength" : 1703684}], "bufferViews" : [{"buffer" : 0, "byteOffset" : 0, "byteLength" : 131052, "target" : 34963}, {"buffer" : 0, "byteOffset" : 131056, "byteLength" : 1572624, "byteStride" : 24, "target" : 34962}], "meshes" : [{"primitives" : [{"attributes" : {"POSITION" : 1, "NORMAL" : 2}, "indices" : 0, "mode" : 4}], "name" : ""}], "nodes" : [{"mesh" : 0, "name" : ""}], "scene" : 0, "scenes" : [{"nodes" : [0]}]}