{
  "accessors": [
    {
      "bufferView": 2,
      "componentType": 5126,
      "count": 12,
      "max": [
        5,
        0.099995002150535583,
        9.8076353073120117
      ],
      "min": [
        -5,
        -0.099995002150535583,
        -0.19236469268798828
      ],
      "type": "VEC3"
    },
    {
      "bufferView": 2,
      "byteOffset": 144,
      "componentType": 5126,
      "count": 12,
      "max": [
        1.4071254383907217e-08,
        1,
        -1.4909646495198103e-07
      ],
      "min": [
        1.4071254383907217e-08,
        -1,
        -1.4909646495198103e-07
      ],
      "type": "VEC3"
    },
    {
      "bufferView": 1,
      "componentType": 5126,
      "count": 12,
      "max": [
        1,
        1
      ],
      "min": [
        0,
        0
      ],
      "type": "VEC2"
    },
    {
      "bufferView": 1,
      "byteOffset": 96,
      "componentType": 5126,
      "count": 12,
      "max": [
        1,
        1
      ],
      "min": [
        0,
        0
      ],
      "type": "VEC2"
    },
    {
      "bufferView": 0,
      "componentType": 5125,
      "count": 24,
      "max": [
        11
      ],
      "min": [
        0
      ],
      "type": "SCALAR"
    },
    {
      "bufferView": 2,
      "byteOffset": 288,
      "componentType": 5126,
      "count": 8,
      "max": [
        0.7600243091583252,
        0.10000000149011612,
        1.6679532527923584
      ],
      "min": [
        -1.6393918991088867,
        -0.10000000149011612,
        -0.66817116737365723
      ],
      "type": "VEC3"
    },
    {
      "bufferView": 2,
      "byteOffset": 384,
      "componentType": 5126,
      "count": 8,
      "max": [
        -0.020829113200306892,
        0.99955421686172485,
        0.021393429487943649
      ],
      "min": [
        -0.020829113200306892,
        -0.99955421686172485,
        0.0213934276252985
      ],
      "type": "VEC3"
    },
    {
      "bufferView": 1,
      "byteOffset": 192,
      "componentType": 5126,
      "count": 8,
      "max": [
        0.86997079849243164,
        0.97176682949066162
      ],
      "min": [
        0.63002920150756836,
        0.73815435171127319
      ],
      "type": "VEC2"
    },
    {
      "bufferView": 1,
      "byteOffset": 256,
      "componentType": 5126,
      "count": 8,
      "max": [
        0.86997079849243164,
        0.97176682949066162
      ],
      "min": [
        0.63002920150756836,
        0.73815435171127319
      ],
      "type": "VEC2"
    },
    {
      "bufferView": 0,
      "byteOffset": 96,
      "componentType": 5125,
      "count": 12,
      "max": [
        7
      ],
      "min": [
        0
      ],
      "type": "SCALAR"
    },
    {
      "bufferView": 3,
      "componentType": 5126,
      "count": 25,
      "max": [
        0.80000001192092896
      ],
      "min": [
        0
      ],
      "type": "SCALAR"
    },
    {
      "bufferView": 4,
      "componentType": 5126,
      "count": 25,
      "max": [
        0,
        0,
        0,
        1
      ],
      "min": [
        0,
        -0.13052619993686676,
        0,
        0.99144488573074341
      ],
      "type": "VEC4"
    }
  ],
  "animations": [
    {
      "channels": [
        {
          "sampler": 0,
          "target": {
            "node": 7,
            "path": "rotation"
          }
        }
      ],
      "name": "Take 001",
      "samplers": [
        {
          "input": 10,
          "interpolation": "LINEAR",
          "output": 11
        }
      ]
    }
  ],
  "asset": {
    "extras": {
      "author": "Mike Inel (https://sketchfab.com/mikeinel)",
      "license": "CC-BY-4.0 (http://creativecommons.org/licenses/by/4.0/)",
      "source": "https://sketchfab.com/3d-models/snail-artwork-e0005517225845269ba96f394e945453",
      "title": "Snail (Artwork)"
    },
    "generator": "Sketchfab-7.53.0",
    "version": "2.0"
  },
  "bufferViews": [
    {
      "buffer": 0,
      "byteLength": 144,
      "byteOffset": 0,
      "name": "floatBufferViews",
      "target": 34963
    },
    {
      "buffer": 0,
      "byteLength": 320,
      "byteOffset": 144,
      "byteStride": 8,
      "name": "floatBufferViews",
      "target": 34962
    },
    {
      "buffer": 0,
      "byteLength": 480,
      "byteOffset": 464,
      "byteStride": 12,
      "name": "floatBufferViews",
      "target": 34962
    },
    {
      "buffer": 0,
      "byteLength": 100,
      "byteOffset": 944,
      "name": "floatBufferViews"
    },
    {
      "buffer": 0,
      "byteLength": 400,
      "byteOffset": 1044,
      "byteStride": 16,
      "name": "floatBufferViews"
    }
  ],
  "buffers": [
    {
      "byteLength": 1444,
      "uri": "scene.bin"
    }
  ],
  "images": [
    {
      "uri": "textures/Snail_baseColor.png"
    }
  ],
  "materials": [
    {
      "alphaCutoff": 0.5,
      "alphaMode": "MASK",
      "doubleSided": false,
      "name": "Snail",
      "pbrMetallicRoughness": {
        "baseColorFactor": [
          1,
          1,
          1,
          1
        ],
        "baseColorTexture": {
          "index": 0,
          "texCoord": 0
        },
        "metallicFactor": 0,
        "roughnessFactor": 1
      }
    }
  ],
  "meshes": [
    {
      "name": "Snail_Snail_0",
      "primitives": [
        {
          "attributes": {
            "NORMAL": 1,
            "POSITION": 0,
            "TEXCOORD_0": 2,
            "TEXCOORD_1": 3
          },
          "indices": 4,
          "material": 0,
          "mode": 4
        }
      ]
    },
    {
      "name": "Snail-Arm_Snail_0",
      "primitives": [
        {
          "attributes": {
            "NORMAL": 6,
            "POSITION": 5,
            "TEXCOORD_0": 7,
            "TEXCOORD_1": 8
          },
          "indices": 9,
          "material": 0,
          "mode": 4
        }
      ]
    }
  ],
  "nodes": [
    {
      "children": [
        1
      ],
      "name": "RootNode (gltf orientation matrix)",
      "rotation": [
        -0.70710678118654746,
        -0,
        -0,
        0.70710678118654757
      ]
    },
    {
      "children": [
        2
      ],
      "matrix": [
        1,
        2.832769343193999e-16,
        2.832769343193999e-16,
        0,
        2.832769343193999e-16,
        -1,
        3.1450057482662597e-32,
        0,
        2.832769343193999e-16,
        4.8795769672831353e-32,
        -1,
        0,
        0.17522518336772919,
        2.7666595997288823e-05,
        4.9299287638859823e-06,
        1
      ],
      "name": "RootNode (model correction matrix)"
    },
    {
      "children": [
        3
      ],
      "matrix": [
        1,
        0,
        0,
        0,
        0,
        -1,
        0,
        0,
        0,
        0,
        -1,
        0,
        0,
        0,
        0,
        1
      ],
      "name": "cfce81e0e9f040fc818eaac1be149e0a.fbx"
    },
    {
      "children": [
        4
      ],
      "name": ""
    },
    {
      "children": [
        5
      ],
      "name": "RootNode"
    },
    {
      "children": [
        6,
        7
      ],
      "name": "Snail",
      "translation": [
        0,
        -5.7919633036362939e-06,
        -4.8076353073120117
      ]
    },
    {
      "mesh": 0,
      "name": "Snail_Snail_0"
    },
    {
      "children": [
        8
      ],
      "name": "Snail-Arm",
      "translation": [
        -4.25,
        5.7891011238098145e-06,
        4.4077939987182617
      ]
    },
    {
      "mesh": 1,
      "name": "Snail-Arm_Snail_0"
    }
  ],
  "samplers": [
    {
      "magFilter": 9729,
      "minFilter": 9987,
      "wrapS": 10497,
      "wrapT": 10497
    }
  ],
  "scene": 0,
  "scenes": [
    {
      "name": "OSG_Scene",
      "nodes": [
        0
      ]
    }
  ],
  "textures": [
    {
      "sampler": 0,
      "source": 0
    }
  ]
}

